<svg width="530" height="530" viewBox="0 0 530 530" fill="none" xmlns="http://www.w3.org/2000/svg">
<path d="M219.94 63.4252V215.654C219.94 218.415 217.701 220.654 214.94 220.654H62.9729M313.031 63.4252V215.654C313.031 218.415 315.27 220.654 318.031 220.654H468.017M468.017 315.394H318.031C315.27 315.394 313.031 317.632 313.031 320.394V466.575M219.94 467.583V320.394C219.94 317.632 217.701 315.394 214.94 315.394H62.9729" stroke="black" stroke-width="18"/>
<path d="M313.031 64.4331C313.031 36.6014 297.114 9 266.486 9C235.857 9 219.94 36.6014 219.94 64.4331" stroke="black" stroke-width="18"/>
<path d="M219.94 465.567C219.94 493.399 235.857 521 266.486 521C297.114 521 313.031 493.399 313.031 465.567" stroke="black" stroke-width="18"/>
<path d="M466.532 315.394C493.879 315.394 521 299.195 521 268.024C521 236.852 493.879 220.654 466.532 220.654" stroke="black" stroke-width="18"/>
<path d="M63.4681 220.654C36.1209 220.654 9 236.852 9 268.024C9 299.195 36.1209 315.394 63.4681 315.394" stroke="black" stroke-width="18"/>
</svg>
