<svg width="343" height="325" viewBox="0 0 343 325" fill="none" xmlns="http://www.w3.org/2000/svg">
<path d="M145.988 128H332.5C333.052 128 333.5 128.448 333.5 129V196C333.5 196.552 333.052 197 332.5 197H145.975C145.076 197 144.634 198.095 145.281 198.719L215.275 266.3C215.675 266.686 215.684 267.323 215.295 267.72L168.695 315.291C168.31 315.683 167.681 315.692 167.286 315.31L9.74521 163.219C9.33795 162.826 9.33795 162.174 9.74521 161.781L167.289 9.68595C167.683 9.30573 168.31 9.31285 168.695 9.70192L215.785 57.2779C216.178 57.6749 216.17 58.3166 215.767 58.7032L145.296 126.278C144.645 126.902 145.087 128 145.988 128Z" stroke="#FBF2F2" stroke-width="18"/>
</svg>
